<?xml version="1.0" encoding="UTF-8" standalone="no"?>
<!DOCTYPE svg PUBLIC "-//W3C//DTD SVG 1.1//EN" "http://www.w3.org/Graphics/SVG/1.1/DTD/svg11.dtd">
<svg width="100%" height="100%" viewBox="0 0 48 47" version="1.1" xmlns="http://www.w3.org/2000/svg" xmlns:xlink="http://www.w3.org/1999/xlink" xml:space="preserve" xmlns:serif="http://www.serif.com/" style="fill-rule:evenodd;clip-rule:evenodd;stroke-linejoin:round;stroke-miterlimit:2;">
    <g id="icon-demo-light">
        <g>
            <path d="M46.831,1.088C46.792,0.902 46.648,0.754 46.463,0.71C40.4,-0.773 26.392,4.51 18.803,12.096C17.449,13.439 16.215,14.897 15.115,16.454C12.774,16.247 10.434,16.42 8.439,17.289C2.811,19.766 1.173,26.229 0.716,29.01C0.707,29.065 0.702,29.121 0.702,29.177C0.702,29.724 1.153,30.175 1.7,30.175C1.736,30.175 1.772,30.173 1.808,30.169L10.846,29.172C10.852,29.854 10.893,30.534 10.969,31.211C11.014,31.682 11.223,32.121 11.559,32.454L15.059,35.945C15.391,36.28 15.831,36.489 16.301,36.535C16.974,36.61 17.651,36.651 18.329,36.658L17.337,45.684C17.333,45.72 17.331,45.756 17.331,45.791C17.331,46.339 17.782,46.79 18.33,46.79C18.386,46.79 18.441,46.786 18.496,46.776C21.272,46.331 27.746,44.693 30.209,39.065C31.078,37.07 31.256,34.741 31.055,32.412C32.616,31.312 34.078,30.077 35.425,28.723C43.038,21.148 48.29,7.452 46.831,1.088ZM27.829,19.686C26.897,18.755 26.373,17.49 26.373,16.172C26.373,13.446 28.615,11.203 31.341,11.203C34.067,11.203 36.31,13.446 36.31,16.172C36.31,17.49 35.785,18.755 34.853,19.686C33.923,20.618 32.658,21.143 31.341,21.143C30.024,21.143 28.76,20.618 27.829,19.686Z" style="fill:rgb(38,38,38);fill-rule:nonzero;"/>
        </g>
        <g>
            <path d="M14.821,38.474C14.253,39.042 13.344,39.264 12.248,39.453C9.788,39.872 7.615,37.746 8.057,35.259C8.226,34.316 8.725,32.994 9.035,32.683C9.122,32.598 9.171,32.482 9.171,32.36C9.171,32.112 8.967,31.908 8.719,31.908C8.698,31.908 8.678,31.909 8.658,31.912C7.282,32.08 6.002,32.705 5.021,33.684C2.588,36.12 2.358,45.157 2.358,45.157C2.358,45.157 11.401,44.928 13.834,42.492C14.817,41.513 15.442,40.23 15.607,38.853C15.646,38.42 15.119,38.162 14.821,38.474Z" style="fill:rgb(38,38,38);fill-rule:nonzero;"/>
        </g>
    </g>
</svg>
