<?xml version="1.0" encoding="UTF-8" standalone="no"?>
<!DOCTYPE svg PUBLIC "-//W3C//DTD SVG 1.1//EN" "http://www.w3.org/Graphics/SVG/1.1/DTD/svg11.dtd">
<svg width="100%" height="100%" viewBox="0 0 36 45" version="1.1" xmlns="http://www.w3.org/2000/svg" xmlns:xlink="http://www.w3.org/1999/xlink" xml:space="preserve" xmlns:serif="http://www.serif.com/" style="fill-rule:evenodd;clip-rule:evenodd;stroke-linejoin:round;stroke-miterlimit:2;">
    <g id="icon-pdf-dark">
        <g>
            <g id="icon-file">
                <path d="M7.367,44.766L29.013,44.766C33.399,44.766 35.593,42.547 35.593,38.108L35.593,19.987L20.657,19.987C17.889,19.987 16.584,18.681 16.584,15.913L16.584,0.743L7.367,0.743C2.98,0.743 0.813,2.962 0.813,7.401L0.813,38.108C0.813,42.573 2.98,44.766 7.367,44.766ZM20.657,16.932L35.358,16.932C35.227,15.966 34.574,15.052 33.478,13.929L22.642,2.858C21.571,1.761 20.605,1.083 19.639,0.926L19.639,15.913C19.639,16.593 20.004,16.932 20.657,16.932ZM10.291,36.75C9.377,36.75 8.725,36.097 8.725,35.236C8.725,34.4 9.377,33.721 10.291,33.721L26.141,33.721C27.028,33.721 27.707,34.4 27.707,35.236C27.707,36.097 27.028,36.75 26.141,36.75L10.291,36.75ZM10.291,28.891C9.377,28.891 8.725,28.238 8.725,27.402C8.725,26.541 9.377,25.888 10.291,25.888L26.141,25.888C27.028,25.888 27.707,26.541 27.707,27.402C27.707,28.238 27.028,28.891 26.141,28.891L10.291,28.891Z" style="fill:rgb(230,237,243);fill-rule:nonzero;"/>
            </g>
        </g>
    </g>
</svg>
